<mxfile host="app.diagrams.net" modified="2024-03-02T08:58:42.636Z" agent="Mozilla/5.0 (Windows NT 10.0; Win64; x64) AppleWebKit/537.36 (KHTML, like Gecko) Chrome/122.0.0.0 Safari/537.36" etag="ZY8iZWiDQS2eeBABAuLJ" version="24.0.0" type="device">
  <diagram id="R2lEEEUBdFMjLlhIrx00" name="Page-1">
    <mxGraphModel dx="901" dy="1023" grid="1" gridSize="10" guides="1" tooltips="1" connect="1" arrows="1" fold="1" page="1" pageScale="1" pageWidth="850" pageHeight="1100" math="0" shadow="0" extFonts="Permanent Marker^https://fonts.googleapis.com/css?family=Permanent+Marker">
      <root>
        <mxCell id="0" />
        <mxCell id="1" parent="0" />
        <mxCell id="4T4qqn_lKCSvWBJ_yzXh-14" value="" style="shape=link;html=1;rounded=0;fontSize=12;startSize=8;endSize=8;curved=1;exitX=0.5;exitY=1;exitDx=0;exitDy=0;entryX=1;entryY=0.5;entryDx=0;entryDy=0;" edge="1" parent="1" source="4T4qqn_lKCSvWBJ_yzXh-26" target="4T4qqn_lKCSvWBJ_yzXh-23">
          <mxGeometry relative="1" as="geometry">
            <mxPoint x="685" y="420" as="sourcePoint" />
            <mxPoint x="755" y="500" as="targetPoint" />
          </mxGeometry>
        </mxCell>
        <mxCell id="4T4qqn_lKCSvWBJ_yzXh-19" value="Tem" style="shape=rhombus;perimeter=rhombusPerimeter;whiteSpace=wrap;html=1;align=center;" vertex="1" parent="1">
          <mxGeometry x="350" y="760" width="100" height="60" as="geometry" />
        </mxCell>
        <mxCell id="4T4qqn_lKCSvWBJ_yzXh-23" value="&lt;div style=&quot;&quot;&gt;&lt;span style=&quot;font-size: 16px; background-color: initial;&quot;&gt;&lt;br&gt;&lt;/span&gt;&lt;/div&gt;&lt;div style=&quot;&quot;&gt;&lt;span style=&quot;font-size: 16px; background-color: initial;&quot;&gt;IS-A&lt;/span&gt;&lt;/div&gt;" style="triangle;whiteSpace=wrap;html=1;direction=north;align=center;" vertex="1" parent="1">
          <mxGeometry x="500" y="280" width="70" height="50" as="geometry" />
        </mxCell>
        <mxCell id="4T4qqn_lKCSvWBJ_yzXh-25" value="NaoEstudante" style="whiteSpace=wrap;html=1;align=center;" vertex="1" parent="1">
          <mxGeometry x="585" y="360" width="100" height="40" as="geometry" />
        </mxCell>
        <mxCell id="4T4qqn_lKCSvWBJ_yzXh-26" value="Participantes" style="whiteSpace=wrap;html=1;align=center;" vertex="1" parent="1">
          <mxGeometry x="485" y="190" width="100" height="40" as="geometry" />
        </mxCell>
        <mxCell id="4T4qqn_lKCSvWBJ_yzXh-27" value="Estudante" style="whiteSpace=wrap;html=1;align=center;" vertex="1" parent="1">
          <mxGeometry x="385" y="360" width="100" height="40" as="geometry" />
        </mxCell>
        <mxCell id="4T4qqn_lKCSvWBJ_yzXh-28" value="Instituicao" style="whiteSpace=wrap;html=1;align=center;" vertex="1" parent="1">
          <mxGeometry x="520" y="520" width="100" height="40" as="geometry" />
        </mxCell>
        <mxCell id="4T4qqn_lKCSvWBJ_yzXh-29" value="Endereco" style="ellipse;whiteSpace=wrap;html=1;align=center;" vertex="1" parent="1">
          <mxGeometry x="670" y="490" width="100" height="40" as="geometry" />
        </mxCell>
        <mxCell id="4T4qqn_lKCSvWBJ_yzXh-30" value="Email" style="ellipse;whiteSpace=wrap;html=1;align=center;" vertex="1" parent="1">
          <mxGeometry x="355" y="190" width="100" height="40" as="geometry" />
        </mxCell>
        <mxCell id="4T4qqn_lKCSvWBJ_yzXh-32" value="Nome" style="ellipse;whiteSpace=wrap;html=1;align=center;fontStyle=4;" vertex="1" parent="1">
          <mxGeometry x="670" y="550" width="100" height="40" as="geometry" />
        </mxCell>
        <mxCell id="4T4qqn_lKCSvWBJ_yzXh-34" value="Autor" style="whiteSpace=wrap;html=1;align=center;" vertex="1" parent="1">
          <mxGeometry x="520" y="770" width="100" height="40" as="geometry" />
        </mxCell>
        <mxCell id="4T4qqn_lKCSvWBJ_yzXh-35" value="Artigo" style="whiteSpace=wrap;html=1;align=center;" vertex="1" parent="1">
          <mxGeometry x="180" y="770" width="100" height="40" as="geometry" />
        </mxCell>
        <mxCell id="4T4qqn_lKCSvWBJ_yzXh-37" value="Morada" style="ellipse;whiteSpace=wrap;html=1;align=center;" vertex="1" parent="1">
          <mxGeometry x="565" y="120" width="100" height="40" as="geometry" />
        </mxCell>
        <mxCell id="4T4qqn_lKCSvWBJ_yzXh-38" value="DataInscricao" style="ellipse;whiteSpace=wrap;html=1;align=center;" vertex="1" parent="1">
          <mxGeometry x="625" y="190" width="100" height="40" as="geometry" />
        </mxCell>
        <mxCell id="4T4qqn_lKCSvWBJ_yzXh-31" value="Referencia" style="ellipse;whiteSpace=wrap;html=1;align=center;" vertex="1" parent="1">
          <mxGeometry x="725" y="360" width="100" height="40" as="geometry" />
        </mxCell>
        <mxCell id="4T4qqn_lKCSvWBJ_yzXh-47" value="" style="endArrow=none;html=1;rounded=0;fontSize=12;startSize=8;endSize=8;curved=1;entryX=0;entryY=0.25;entryDx=0;entryDy=0;exitX=1;exitY=0.5;exitDx=0;exitDy=0;" edge="1" parent="1" source="4T4qqn_lKCSvWBJ_yzXh-27" target="4T4qqn_lKCSvWBJ_yzXh-23">
          <mxGeometry relative="1" as="geometry">
            <mxPoint x="335" y="330" as="sourcePoint" />
            <mxPoint x="495" y="330" as="targetPoint" />
          </mxGeometry>
        </mxCell>
        <mxCell id="4T4qqn_lKCSvWBJ_yzXh-48" value="" style="endArrow=none;html=1;rounded=0;fontSize=12;startSize=8;endSize=8;curved=1;entryX=0;entryY=0.5;entryDx=0;entryDy=0;exitX=0;exitY=0.75;exitDx=0;exitDy=0;" edge="1" parent="1" source="4T4qqn_lKCSvWBJ_yzXh-23" target="4T4qqn_lKCSvWBJ_yzXh-25">
          <mxGeometry relative="1" as="geometry">
            <mxPoint x="425" y="340" as="sourcePoint" />
            <mxPoint x="585" y="340" as="targetPoint" />
          </mxGeometry>
        </mxCell>
        <mxCell id="4T4qqn_lKCSvWBJ_yzXh-53" value="Titulo" style="ellipse;whiteSpace=wrap;html=1;align=center;" vertex="1" parent="1">
          <mxGeometry x="40" y="740" width="100" height="40" as="geometry" />
        </mxCell>
        <mxCell id="4T4qqn_lKCSvWBJ_yzXh-55" value="Email" style="ellipse;whiteSpace=wrap;html=1;align=center;" vertex="1" parent="1">
          <mxGeometry x="670" y="800" width="100" height="40" as="geometry" />
        </mxCell>
        <mxCell id="4T4qqn_lKCSvWBJ_yzXh-57" value="Nome" style="ellipse;whiteSpace=wrap;html=1;align=center;fontStyle=4;" vertex="1" parent="1">
          <mxGeometry x="670" y="740" width="100" height="40" as="geometry" />
        </mxCell>
        <mxCell id="4T4qqn_lKCSvWBJ_yzXh-58" value="Nome" style="ellipse;whiteSpace=wrap;html=1;align=center;fontStyle=4;" vertex="1" parent="1">
          <mxGeometry x="420" y="120" width="100" height="40" as="geometry" />
        </mxCell>
        <mxCell id="4T4qqn_lKCSvWBJ_yzXh-60" value="NumeroRegisto" style="ellipse;whiteSpace=wrap;html=1;align=center;fontStyle=4;" vertex="1" parent="1">
          <mxGeometry x="40" y="800" width="100" height="40" as="geometry" />
        </mxCell>
        <mxCell id="4T4qqn_lKCSvWBJ_yzXh-61" value="Comprovativo" style="whiteSpace=wrap;html=1;align=center;" vertex="1" parent="1">
          <mxGeometry x="180" y="520" width="100" height="40" as="geometry" />
        </mxCell>
        <mxCell id="4T4qqn_lKCSvWBJ_yzXh-65" value="Localizacao" style="ellipse;whiteSpace=wrap;html=1;align=center;fontStyle=4;" vertex="1" parent="1">
          <mxGeometry x="40" y="520" width="100" height="40" as="geometry" />
        </mxCell>
        <mxCell id="4T4qqn_lKCSvWBJ_yzXh-66" value="" style="endArrow=none;html=1;rounded=0;fontSize=12;startSize=8;endSize=8;curved=1;exitX=1;exitY=0.5;exitDx=0;exitDy=0;entryX=0;entryY=0.5;entryDx=0;entryDy=0;" edge="1" parent="1" source="4T4qqn_lKCSvWBJ_yzXh-30" target="4T4qqn_lKCSvWBJ_yzXh-26">
          <mxGeometry relative="1" as="geometry">
            <mxPoint x="455" y="340" as="sourcePoint" />
            <mxPoint x="615" y="340" as="targetPoint" />
          </mxGeometry>
        </mxCell>
        <mxCell id="4T4qqn_lKCSvWBJ_yzXh-67" value="" style="endArrow=none;html=1;rounded=0;fontSize=12;startSize=8;endSize=8;curved=1;entryX=0;entryY=0.5;entryDx=0;entryDy=0;exitX=1;exitY=0.5;exitDx=0;exitDy=0;" edge="1" parent="1" source="4T4qqn_lKCSvWBJ_yzXh-26" target="4T4qqn_lKCSvWBJ_yzXh-38">
          <mxGeometry relative="1" as="geometry">
            <mxPoint x="585" y="210" as="sourcePoint" />
            <mxPoint x="685" y="230" as="targetPoint" />
          </mxGeometry>
        </mxCell>
        <mxCell id="4T4qqn_lKCSvWBJ_yzXh-68" value="" style="endArrow=none;html=1;rounded=0;fontSize=12;startSize=8;endSize=8;curved=1;exitX=0.5;exitY=1;exitDx=0;exitDy=0;entryX=0.75;entryY=0;entryDx=0;entryDy=0;" edge="1" parent="1" source="4T4qqn_lKCSvWBJ_yzXh-37" target="4T4qqn_lKCSvWBJ_yzXh-26">
          <mxGeometry relative="1" as="geometry">
            <mxPoint x="475" y="360" as="sourcePoint" />
            <mxPoint x="635" y="360" as="targetPoint" />
          </mxGeometry>
        </mxCell>
        <mxCell id="4T4qqn_lKCSvWBJ_yzXh-69" value="" style="endArrow=none;html=1;rounded=0;fontSize=12;startSize=8;endSize=8;curved=1;exitX=0.5;exitY=1;exitDx=0;exitDy=0;entryX=0.25;entryY=0;entryDx=0;entryDy=0;" edge="1" parent="1" source="4T4qqn_lKCSvWBJ_yzXh-58" target="4T4qqn_lKCSvWBJ_yzXh-26">
          <mxGeometry relative="1" as="geometry">
            <mxPoint x="485" y="370" as="sourcePoint" />
            <mxPoint x="645" y="370" as="targetPoint" />
          </mxGeometry>
        </mxCell>
        <mxCell id="4T4qqn_lKCSvWBJ_yzXh-70" value="" style="endArrow=none;html=1;rounded=0;fontSize=12;startSize=8;endSize=8;curved=1;entryX=0;entryY=0.5;entryDx=0;entryDy=0;exitX=1;exitY=0.5;exitDx=0;exitDy=0;" edge="1" parent="1" source="4T4qqn_lKCSvWBJ_yzXh-25" target="4T4qqn_lKCSvWBJ_yzXh-31">
          <mxGeometry relative="1" as="geometry">
            <mxPoint x="455" y="340" as="sourcePoint" />
            <mxPoint x="615" y="340" as="targetPoint" />
          </mxGeometry>
        </mxCell>
        <mxCell id="4T4qqn_lKCSvWBJ_yzXh-71" value="" style="endArrow=none;html=1;rounded=0;fontSize=12;startSize=8;endSize=8;curved=1;exitX=0;exitY=0.5;exitDx=0;exitDy=0;entryX=1;entryY=0.25;entryDx=0;entryDy=0;" edge="1" parent="1" source="4T4qqn_lKCSvWBJ_yzXh-57" target="4T4qqn_lKCSvWBJ_yzXh-34">
          <mxGeometry relative="1" as="geometry">
            <mxPoint x="340" y="460" as="sourcePoint" />
            <mxPoint x="500" y="460" as="targetPoint" />
          </mxGeometry>
        </mxCell>
        <mxCell id="4T4qqn_lKCSvWBJ_yzXh-72" value="" style="endArrow=none;html=1;rounded=0;fontSize=12;startSize=8;endSize=8;curved=1;exitX=1;exitY=0.75;exitDx=0;exitDy=0;entryX=0;entryY=0.5;entryDx=0;entryDy=0;" edge="1" parent="1" source="4T4qqn_lKCSvWBJ_yzXh-28" target="4T4qqn_lKCSvWBJ_yzXh-32">
          <mxGeometry relative="1" as="geometry">
            <mxPoint x="340" y="460" as="sourcePoint" />
            <mxPoint x="500" y="460" as="targetPoint" />
          </mxGeometry>
        </mxCell>
        <mxCell id="4T4qqn_lKCSvWBJ_yzXh-73" value="" style="endArrow=none;html=1;rounded=0;fontSize=12;startSize=8;endSize=8;curved=1;exitX=0;exitY=0.5;exitDx=0;exitDy=0;entryX=1;entryY=0.25;entryDx=0;entryDy=0;" edge="1" parent="1" source="4T4qqn_lKCSvWBJ_yzXh-29" target="4T4qqn_lKCSvWBJ_yzXh-28">
          <mxGeometry relative="1" as="geometry">
            <mxPoint x="340" y="460" as="sourcePoint" />
            <mxPoint x="500" y="460" as="targetPoint" />
          </mxGeometry>
        </mxCell>
        <mxCell id="4T4qqn_lKCSvWBJ_yzXh-74" value="" style="endArrow=none;html=1;rounded=0;fontSize=12;startSize=8;endSize=8;curved=1;exitX=1;exitY=0.5;exitDx=0;exitDy=0;entryX=0;entryY=0.5;entryDx=0;entryDy=0;" edge="1" parent="1" source="4T4qqn_lKCSvWBJ_yzXh-65" target="4T4qqn_lKCSvWBJ_yzXh-61">
          <mxGeometry relative="1" as="geometry">
            <mxPoint x="340" y="460" as="sourcePoint" />
            <mxPoint x="500" y="460" as="targetPoint" />
          </mxGeometry>
        </mxCell>
        <mxCell id="4T4qqn_lKCSvWBJ_yzXh-75" value="" style="endArrow=none;html=1;rounded=0;fontSize=12;startSize=8;endSize=8;curved=1;exitX=1;exitY=0.5;exitDx=0;exitDy=0;entryX=0;entryY=0.75;entryDx=0;entryDy=0;" edge="1" parent="1" source="4T4qqn_lKCSvWBJ_yzXh-60" target="4T4qqn_lKCSvWBJ_yzXh-35">
          <mxGeometry relative="1" as="geometry">
            <mxPoint x="340" y="510" as="sourcePoint" />
            <mxPoint x="500" y="510" as="targetPoint" />
          </mxGeometry>
        </mxCell>
        <mxCell id="4T4qqn_lKCSvWBJ_yzXh-76" value="" style="endArrow=none;html=1;rounded=0;fontSize=12;startSize=8;endSize=8;curved=1;exitX=1;exitY=0.5;exitDx=0;exitDy=0;entryX=0;entryY=0.25;entryDx=0;entryDy=0;" edge="1" parent="1" source="4T4qqn_lKCSvWBJ_yzXh-53" target="4T4qqn_lKCSvWBJ_yzXh-35">
          <mxGeometry relative="1" as="geometry">
            <mxPoint x="340" y="510" as="sourcePoint" />
            <mxPoint x="500" y="510" as="targetPoint" />
          </mxGeometry>
        </mxCell>
        <mxCell id="4T4qqn_lKCSvWBJ_yzXh-80" value="" style="shape=link;html=1;rounded=0;fontSize=12;startSize=8;endSize=8;curved=1;exitX=1;exitY=0.5;exitDx=0;exitDy=0;entryX=0;entryY=0.5;entryDx=0;entryDy=0;" edge="1" parent="1" source="4T4qqn_lKCSvWBJ_yzXh-35" target="4T4qqn_lKCSvWBJ_yzXh-19">
          <mxGeometry relative="1" as="geometry">
            <mxPoint x="320" y="510" as="sourcePoint" />
            <mxPoint x="480" y="510" as="targetPoint" />
          </mxGeometry>
        </mxCell>
        <mxCell id="4T4qqn_lKCSvWBJ_yzXh-81" value="M" style="resizable=0;html=1;whiteSpace=wrap;align=left;verticalAlign=bottom;" connectable="0" vertex="1" parent="4T4qqn_lKCSvWBJ_yzXh-80">
          <mxGeometry x="-1" relative="1" as="geometry">
            <mxPoint x="1" as="offset" />
          </mxGeometry>
        </mxCell>
        <mxCell id="4T4qqn_lKCSvWBJ_yzXh-83" value="" style="shape=link;html=1;rounded=0;fontSize=12;startSize=8;endSize=8;curved=1;entryX=1;entryY=0.5;entryDx=0;entryDy=0;exitX=0;exitY=0.5;exitDx=0;exitDy=0;" edge="1" parent="1" source="4T4qqn_lKCSvWBJ_yzXh-34" target="4T4qqn_lKCSvWBJ_yzXh-19">
          <mxGeometry relative="1" as="geometry">
            <mxPoint x="320" y="510" as="sourcePoint" />
            <mxPoint x="480" y="510" as="targetPoint" />
          </mxGeometry>
        </mxCell>
        <mxCell id="4T4qqn_lKCSvWBJ_yzXh-84" value="N" style="resizable=0;html=1;whiteSpace=wrap;align=right;verticalAlign=bottom;" connectable="0" vertex="1" parent="4T4qqn_lKCSvWBJ_yzXh-83">
          <mxGeometry x="1" relative="1" as="geometry">
            <mxPoint x="62" as="offset" />
          </mxGeometry>
        </mxCell>
        <mxCell id="4T4qqn_lKCSvWBJ_yzXh-85" style="edgeStyle=none;curved=1;rounded=0;orthogonalLoop=1;jettySize=auto;html=1;exitX=0.5;exitY=1;exitDx=0;exitDy=0;fontSize=12;startSize=8;endSize=8;" edge="1" parent="1" source="4T4qqn_lKCSvWBJ_yzXh-57" target="4T4qqn_lKCSvWBJ_yzXh-57">
          <mxGeometry relative="1" as="geometry" />
        </mxCell>
        <mxCell id="4T4qqn_lKCSvWBJ_yzXh-86" value="Pertence" style="shape=rhombus;perimeter=rhombusPerimeter;whiteSpace=wrap;html=1;align=center;direction=south;" vertex="1" parent="1">
          <mxGeometry x="540" y="630" width="60" height="80" as="geometry" />
        </mxCell>
        <mxCell id="4T4qqn_lKCSvWBJ_yzXh-87" value="" style="shape=link;html=1;rounded=0;fontSize=12;startSize=8;endSize=8;curved=1;entryX=0.5;entryY=0;entryDx=0;entryDy=0;exitX=1;exitY=0.5;exitDx=0;exitDy=0;" edge="1" parent="1" source="4T4qqn_lKCSvWBJ_yzXh-86" target="4T4qqn_lKCSvWBJ_yzXh-34">
          <mxGeometry relative="1" as="geometry">
            <mxPoint x="310" y="530" as="sourcePoint" />
            <mxPoint x="470" y="530" as="targetPoint" />
          </mxGeometry>
        </mxCell>
        <mxCell id="4T4qqn_lKCSvWBJ_yzXh-88" value="N" style="resizable=0;html=1;whiteSpace=wrap;align=right;verticalAlign=bottom;" connectable="0" vertex="1" parent="4T4qqn_lKCSvWBJ_yzXh-87">
          <mxGeometry x="1" relative="1" as="geometry">
            <mxPoint x="-4" y="-1" as="offset" />
          </mxGeometry>
        </mxCell>
        <mxCell id="4T4qqn_lKCSvWBJ_yzXh-89" value="Emite" style="shape=rhombus;perimeter=rhombusPerimeter;whiteSpace=wrap;html=1;align=center;" vertex="1" parent="1">
          <mxGeometry x="350" y="510" width="100" height="60" as="geometry" />
        </mxCell>
        <mxCell id="4T4qqn_lKCSvWBJ_yzXh-90" value="" style="endArrow=none;html=1;rounded=0;fontSize=12;startSize=8;endSize=8;curved=1;exitX=0;exitY=0.5;exitDx=0;exitDy=0;entryX=1;entryY=0.75;entryDx=0;entryDy=0;" edge="1" parent="1" source="4T4qqn_lKCSvWBJ_yzXh-55" target="4T4qqn_lKCSvWBJ_yzXh-34">
          <mxGeometry relative="1" as="geometry">
            <mxPoint x="680" y="770" as="sourcePoint" />
            <mxPoint x="630" y="790" as="targetPoint" />
          </mxGeometry>
        </mxCell>
        <mxCell id="4T4qqn_lKCSvWBJ_yzXh-91" value="Vincula" style="shape=rhombus;perimeter=rhombusPerimeter;whiteSpace=wrap;html=1;align=center;" vertex="1" parent="1">
          <mxGeometry x="180" y="350" width="100" height="60" as="geometry" />
        </mxCell>
        <mxCell id="4T4qqn_lKCSvWBJ_yzXh-92" value="" style="endArrow=none;html=1;rounded=0;fontSize=12;startSize=8;endSize=8;curved=1;exitX=0;exitY=0.5;exitDx=0;exitDy=0;entryX=0.5;entryY=1;entryDx=0;entryDy=0;" edge="1" parent="1" source="4T4qqn_lKCSvWBJ_yzXh-86" target="4T4qqn_lKCSvWBJ_yzXh-28">
          <mxGeometry relative="1" as="geometry">
            <mxPoint x="360" y="550" as="sourcePoint" />
            <mxPoint x="520" y="550" as="targetPoint" />
          </mxGeometry>
        </mxCell>
        <mxCell id="4T4qqn_lKCSvWBJ_yzXh-93" value="1" style="resizable=0;html=1;whiteSpace=wrap;align=right;verticalAlign=bottom;" connectable="0" vertex="1" parent="4T4qqn_lKCSvWBJ_yzXh-92">
          <mxGeometry x="1" relative="1" as="geometry">
            <mxPoint x="-1" y="19" as="offset" />
          </mxGeometry>
        </mxCell>
        <mxCell id="4T4qqn_lKCSvWBJ_yzXh-94" value="" style="shape=link;html=1;rounded=0;fontSize=12;startSize=8;endSize=8;curved=1;exitX=1;exitY=0.5;exitDx=0;exitDy=0;entryX=0;entryY=0.5;entryDx=0;entryDy=0;" edge="1" parent="1" source="4T4qqn_lKCSvWBJ_yzXh-91" target="4T4qqn_lKCSvWBJ_yzXh-27">
          <mxGeometry relative="1" as="geometry">
            <mxPoint x="325" y="490" as="sourcePoint" />
            <mxPoint x="485" y="490" as="targetPoint" />
          </mxGeometry>
        </mxCell>
        <mxCell id="4T4qqn_lKCSvWBJ_yzXh-95" value="N" style="resizable=0;html=1;whiteSpace=wrap;align=right;verticalAlign=bottom;" connectable="0" vertex="1" parent="4T4qqn_lKCSvWBJ_yzXh-94">
          <mxGeometry x="1" relative="1" as="geometry">
            <mxPoint x="-4" as="offset" />
          </mxGeometry>
        </mxCell>
        <mxCell id="4T4qqn_lKCSvWBJ_yzXh-96" value="" style="endArrow=none;html=1;rounded=0;fontSize=12;startSize=8;endSize=8;curved=1;entryX=0;entryY=0.5;entryDx=0;entryDy=0;exitX=1;exitY=0.5;exitDx=0;exitDy=0;" edge="1" parent="1" source="4T4qqn_lKCSvWBJ_yzXh-89" target="4T4qqn_lKCSvWBJ_yzXh-28">
          <mxGeometry relative="1" as="geometry">
            <mxPoint x="325" y="490" as="sourcePoint" />
            <mxPoint x="485" y="490" as="targetPoint" />
          </mxGeometry>
        </mxCell>
        <mxCell id="4T4qqn_lKCSvWBJ_yzXh-97" value="1" style="resizable=0;html=1;whiteSpace=wrap;align=right;verticalAlign=bottom;" connectable="0" vertex="1" parent="4T4qqn_lKCSvWBJ_yzXh-96">
          <mxGeometry x="1" relative="1" as="geometry">
            <mxPoint x="-3" as="offset" />
          </mxGeometry>
        </mxCell>
        <mxCell id="4T4qqn_lKCSvWBJ_yzXh-98" value="" style="shape=link;html=1;rounded=0;fontSize=12;startSize=8;endSize=8;curved=1;entryX=1;entryY=0.5;entryDx=0;entryDy=0;exitX=0;exitY=0.5;exitDx=0;exitDy=0;" edge="1" parent="1" source="4T4qqn_lKCSvWBJ_yzXh-89" target="4T4qqn_lKCSvWBJ_yzXh-61">
          <mxGeometry relative="1" as="geometry">
            <mxPoint x="325" y="490" as="sourcePoint" />
            <mxPoint x="485" y="490" as="targetPoint" />
          </mxGeometry>
        </mxCell>
        <mxCell id="4T4qqn_lKCSvWBJ_yzXh-99" value="N" style="resizable=0;html=1;whiteSpace=wrap;align=right;verticalAlign=bottom;" connectable="0" vertex="1" parent="4T4qqn_lKCSvWBJ_yzXh-98">
          <mxGeometry x="1" relative="1" as="geometry">
            <mxPoint x="13" as="offset" />
          </mxGeometry>
        </mxCell>
        <mxCell id="4T4qqn_lKCSvWBJ_yzXh-100" value="" style="endArrow=none;html=1;rounded=0;fontSize=12;startSize=8;endSize=8;curved=1;entryX=0.5;entryY=0;entryDx=0;entryDy=0;exitX=0.5;exitY=1;exitDx=0;exitDy=0;" edge="1" parent="1" source="4T4qqn_lKCSvWBJ_yzXh-91" target="4T4qqn_lKCSvWBJ_yzXh-61">
          <mxGeometry relative="1" as="geometry">
            <mxPoint x="325" y="490" as="sourcePoint" />
            <mxPoint x="485" y="490" as="targetPoint" />
          </mxGeometry>
        </mxCell>
        <mxCell id="4T4qqn_lKCSvWBJ_yzXh-101" value="1" style="resizable=0;html=1;whiteSpace=wrap;align=right;verticalAlign=bottom;" connectable="0" vertex="1" parent="4T4qqn_lKCSvWBJ_yzXh-100">
          <mxGeometry x="1" relative="1" as="geometry" />
        </mxCell>
      </root>
    </mxGraphModel>
  </diagram>
</mxfile>
